<svg width="131" height="26" viewBox="0 0 131 26" fill="none" xmlns="http://www.w3.org/2000/svg">
<g clip-path="url(#clip0_1038_1160)">
<path d="M97.8719 6.72202C98.8909 6.72202 99.8161 6.85164 100.647 7.11088C101.479 7.37011 102.181 7.70533 102.753 8.11653C103.11 8.36683 103.392 8.64395 103.597 8.94788C103.803 9.25181 103.906 9.64514 103.906 10.1279V19.514L103.901 19.7692C103.872 20.6092 103.695 21.3421 103.369 21.9678C103.012 22.6561 102.525 23.2282 101.908 23.6841C101.291 24.14 100.567 24.4753 99.7357 24.6898C98.9044 24.9043 98.0149 25.0116 97.0674 25.0116C95.4404 25.0116 94.1621 24.7926 93.2324 24.3546C92.3028 23.9165 91.8379 23.2059 91.8379 22.2226C91.8379 21.8114 91.9228 21.4493 92.0927 21.1365C92.2625 20.8236 92.4547 20.5867 92.6693 20.4258C93.1877 20.7119 93.7733 20.9532 94.4258 21.1499C95.0784 21.3465 95.7533 21.4449 96.4505 21.4449C97.416 21.4449 98.1847 21.284 98.7569 20.9621C99.329 20.6403 99.615 20.1219 99.615 19.4067V18.9776L99.4111 19.0614C98.7181 19.3274 97.8922 19.4604 96.9333 19.4604C96.1287 19.4604 95.3644 19.3397 94.6404 19.0983C93.9163 18.857 93.2816 18.4815 92.7363 17.972C92.191 17.4625 91.753 16.8054 91.4223 16.0009C91.0915 15.1964 90.9261 14.2399 90.9261 13.1314C90.9261 12.0408 91.1004 11.0933 91.4491 10.2888C91.7977 9.48423 92.2804 8.81826 92.8972 8.29085C93.514 7.76344 94.247 7.37011 95.0963 7.11088C95.9455 6.85164 96.8707 6.72202 97.8719 6.72202ZM25.6865 7.13834C27.2809 7.13834 28.5855 7.4961 29.6005 8.21162C30.6154 8.92713 31.2162 10.1909 31.4029 12.0031H27.9964L27.9638 11.8026C27.8866 11.4074 27.7381 11.0465 27.5181 10.7198C27.1448 10.2065 26.5654 9.94985 25.7798 9.94985C24.6599 9.94985 23.8938 10.5059 23.4816 11.6181C23.2639 12.2092 23.155 12.9947 23.155 13.9746C23.155 14.9079 23.2639 15.6584 23.4816 16.2262C23.8783 17.2839 24.6249 17.8127 25.7215 17.8127C26.4992 17.8127 27.0514 17.6028 27.3781 17.1828C27.7047 16.7628 27.9031 16.2184 27.9731 15.5495H31.3679L31.3448 15.7819C31.2322 16.7074 30.8743 17.5866 30.2713 18.4194C29.2291 19.8737 27.6853 20.6009 25.6398 20.6009C23.5944 20.6009 22.0895 19.9943 21.1251 18.781C20.1607 17.5678 19.6785 15.9929 19.6785 14.0563C19.6785 11.8709 20.2113 10.1715 21.2768 8.95824C22.3423 7.74497 23.8122 7.13834 25.6865 7.13834ZM56.5835 7.10334C57.6412 7.10334 58.5939 7.30166 59.4416 7.69831C60.2894 8.09495 60.9893 8.72103 61.5415 9.57654C62.0393 10.3309 62.362 11.2059 62.5098 12.2014C62.5954 12.7847 62.6304 13.6246 62.6148 14.7213H53.912L53.9239 14.9424C54.007 16.1006 54.4035 16.9213 55.1136 17.4044C55.5724 17.7233 56.1246 17.8827 56.7701 17.8827C57.4545 17.8827 58.0106 17.6883 58.4384 17.2994C58.6717 17.0895 58.8778 16.7978 59.0567 16.4245H62.4515L62.4263 16.5988C62.3037 17.2968 61.9193 18.0048 61.2732 18.7227C60.1844 19.9593 58.66 20.5776 56.7001 20.5776C55.0824 20.5776 53.6553 20.0565 52.4187 19.0144C51.1821 17.9722 50.5638 16.2767 50.5638 13.928C50.5638 11.727 51.1218 10.0393 52.2379 8.86491C53.3539 7.69053 54.8025 7.10334 56.5835 7.10334ZM79.9285 2.43121C80.3218 2.43121 80.6749 2.45803 80.9878 2.51166C81.3007 2.5653 81.5644 2.67257 81.7789 2.83347C81.9934 2.99438 82.1588 3.21339 82.275 3.4905C82.3912 3.76762 82.4493 4.12966 82.4493 4.57662V20.1308L82.3593 20.1469C82.1678 20.1809 81.9072 20.2247 81.5778 20.2783C81.1934 20.3409 80.8045 20.3722 80.4112 20.3722C80.0179 20.3722 79.6648 20.3453 79.3519 20.2917C79.039 20.2381 78.7753 20.1308 78.5608 19.9699C78.3463 19.809 78.1809 19.59 78.0647 19.3129C77.9485 19.0358 77.8904 18.6737 77.8904 18.2268V2.67257L77.9804 2.65642C78.1719 2.62249 78.4324 2.57871 78.7619 2.52507C79.1463 2.4625 79.5352 2.43121 79.9285 2.43121ZM86.7816 7.07065C87.1749 7.07065 87.528 7.09747 87.8409 7.1511C88.1538 7.20474 88.4175 7.31201 88.632 7.47291C88.8465 7.63382 89.0119 7.85283 89.1281 8.12994C89.2443 8.40706 89.3024 8.76909 89.3024 9.21605V20.1308L89.2124 20.1469C89.0209 20.1809 88.7603 20.2247 88.4309 20.2783C88.0465 20.3409 87.6576 20.3722 87.2643 20.3722C86.871 20.3722 86.5179 20.3453 86.205 20.2917C85.8921 20.2381 85.6284 20.1308 85.4139 19.9699C85.1994 19.809 85.034 19.59 84.9178 19.3129C84.8016 19.0358 84.7435 18.6737 84.7435 18.2268V7.31201L84.8335 7.29586C85.025 7.26193 85.2856 7.21815 85.615 7.16451C85.9994 7.10194 86.3883 7.07065 86.7816 7.07065ZM108.131 2.43121C108.524 2.43121 108.877 2.45803 109.19 2.51166C109.503 2.5653 109.767 2.67257 109.981 2.83347C110.196 2.99438 110.361 3.21339 110.477 3.4905C110.594 3.76762 110.652 4.12966 110.652 4.57662V7.20474L110.744 7.17059C110.974 7.08944 111.296 6.99802 111.711 6.89634C112.185 6.78013 112.708 6.72202 113.28 6.72202C115.05 6.72202 116.431 7.16451 117.423 8.04949C118.415 8.93447 118.911 10.253 118.911 12.0051V20.1308L118.829 20.1538C118.65 20.1998 118.396 20.2457 118.067 20.2917C117.682 20.3453 117.285 20.3722 116.873 20.3722C116.48 20.3722 116.127 20.3453 115.814 20.2917C115.501 20.2381 115.237 20.1308 115.023 19.9699C114.808 19.809 114.643 19.59 114.527 19.3129C114.411 19.0358 114.352 18.6737 114.352 18.2268V12.2733L114.349 12.108C114.323 11.4625 114.141 11.0035 113.803 10.7312C113.436 10.4363 112.985 10.2888 112.448 10.2888C112.091 10.2888 111.751 10.3335 111.429 10.4228C111.108 10.5122 110.848 10.6195 110.652 10.7447V20.1308L110.569 20.1538C110.39 20.1998 110.136 20.2457 109.807 20.2917C109.423 20.3453 109.025 20.3722 108.614 20.3722C108.22 20.3722 107.867 20.3453 107.554 20.2917C107.241 20.2381 106.978 20.1308 106.763 19.9699C106.549 19.809 106.383 19.59 106.267 19.3129C106.151 19.0358 106.093 18.6737 106.093 18.2268V2.67257L106.183 2.65642C106.374 2.62249 106.635 2.57871 106.964 2.52507C107.349 2.4625 107.737 2.43121 108.131 2.43121ZM76.0253 3.90618L76.0868 4.01009C76.1873 4.1926 76.2786 4.42167 76.3605 4.69729C76.4589 5.02804 76.508 5.3722 76.508 5.72977C76.508 6.42703 76.3605 6.92315 76.0655 7.21815C75.7705 7.51314 75.3728 7.66064 74.8722 7.66064H69.2405V10.691H75.1135L75.1832 10.7946C75.2962 10.9758 75.3936 11.2006 75.4756 11.4687C75.5739 11.7905 75.623 12.1302 75.623 12.4878C75.623 13.1672 75.4756 13.6544 75.1806 13.9494C74.8856 14.2443 74.4878 14.3918 73.9872 14.3918H69.2941V20.0504L69.203 20.0733C69.007 20.1193 68.729 20.1653 68.3689 20.2113C67.9488 20.2649 67.5331 20.2917 67.1219 20.2917C66.7107 20.2917 66.3486 20.2604 66.0358 20.1978C65.7229 20.1353 65.4592 20.0235 65.2447 19.8626C65.0301 19.7017 64.8692 19.4782 64.7619 19.1922C64.6547 18.9061 64.601 18.5307 64.601 18.0659V6.40021L64.6057 6.21137C64.6398 5.53125 64.8618 4.98633 65.2715 4.57662C65.7184 4.12966 66.3263 3.90618 67.0951 3.90618H76.0253ZM12.9942 2.98524V6.00674H4.37303V9.96152H11.9209V12.948H4.37303V20.1576H0.803223V2.98524H12.9942ZM17.8646 7.44166V20.1576H14.4931V7.44166H17.8646ZM36.2383 3.02023V12.2831L40.3797 7.49999H44.4978L40.0531 12.3647L44.6728 20.1576H40.6597L37.6149 14.7213L36.2383 16.1562V20.1576H32.9718V3.02023H36.2383ZM49.0066 2.9619V20.1576H45.6817V2.9619H49.0066ZM119.16 3.79589C119.717 3.6283 120.668 3.59102 121.782 4.08344C122.906 4.58053 123.607 5.43317 123.885 6.64135L129.919 7.15418C129.994 7.15851 130.068 7.17365 130.142 7.19959C130.253 7.23851 130.312 7.29326 130.362 7.33611C130.485 7.4412 130.525 7.52222 130.583 7.66731C130.687 7.92531 130.655 8.22896 130.52 8.43717C130.302 8.77285 129.961 8.99004 129.496 9.08874L124.625 10.1241L125.485 14.1695C125.584 14.6339 125.801 14.933 126.138 15.0668C126.474 15.2007 126.91 15.2106 127.446 15.0967C127.714 15.0398 127.986 14.9586 128.263 14.8532C128.539 14.7478 128.777 14.6366 128.976 14.5196C129.178 14.6819 129.363 14.8713 129.53 15.0877C129.698 15.3042 129.818 15.5821 129.89 15.9214C130.156 17.1759 128.182 18.3611 126.888 18.5937C125.689 18.809 123.85 18.988 122.798 16.2335C121.747 13.479 120.095 8.86192 118.835 5.01417C118.726 4.68212 118.659 4.35599 118.776 4.08687C118.839 3.94141 118.885 3.87862 119.16 3.79589ZM98.0864 10.2888C97.2104 10.2888 96.5533 10.5346 96.1153 11.0262C95.6773 11.5179 95.4583 12.2196 95.4583 13.1314C95.4583 14.1684 95.6773 14.9148 96.1153 15.3707C96.5533 15.8266 97.112 16.0545 97.7914 16.0545C98.5244 16.0545 99.1055 15.8847 99.5346 15.545V10.6106L99.4525 10.5677C99.3338 10.5104 99.1779 10.4532 98.9848 10.396C98.7434 10.3245 98.444 10.2888 98.0864 10.2888ZM56.5835 9.84486C55.8135 9.84486 55.2166 10.086 54.7927 10.5682C54.3689 11.0503 54.1025 11.7036 53.9936 12.528H59.1617C59.1072 11.6492 58.8409 10.9823 58.3625 10.5273C57.8842 10.0723 57.2912 9.84486 56.5835 9.84486ZM17.8646 2.85691V5.92507H14.4931V2.85691H17.8646ZM87.023 1.09033C87.7738 1.09033 88.3772 1.32275 88.8331 1.78759C89.289 2.25243 89.517 2.82453 89.517 3.50391C89.517 4.18329 89.289 4.7554 88.8331 5.22024C88.3772 5.68507 87.7738 5.91749 87.023 5.91749C86.2721 5.91749 85.6687 5.68507 85.2128 5.22024C84.7569 4.7554 84.5289 4.18329 84.5289 3.50391C84.5289 2.82453 84.7569 2.25243 85.2128 1.78759C85.6687 1.32275 86.2721 1.09033 87.023 1.09033Z" fill="url(#paint0_linear_1038_1160)"/>
</g>
<defs>
<linearGradient id="paint0_linear_1038_1160" x1="121.217" y1="12.7663" x2="1.99612" y2="24.9016" gradientUnits="userSpaceOnUse">
<stop stop-color="#299BD8"/>
<stop offset="1" stop-color="#1262AF"/>
</linearGradient>
<clipPath id="clip0_1038_1160">
<rect width="130.072" height="24.6688" fill="white" transform="translate(0.803223 0.697601)"/>
</clipPath>
</defs>
</svg>
