<svg width="50" height="50" viewBox="0 0 50 50" fill="none" xmlns="http://www.w3.org/2000/svg">
<path d="M0.771423 12.6801C0.771423 6.07441 6.12638 0.719452 12.7321 0.719452H37.6902C44.2959 0.719452 49.6508 6.07441 49.6508 12.6801V37.6382C49.6508 44.2439 44.2959 49.5989 37.6902 49.5989H12.7321C6.12638 49.5989 0.771423 44.2439 0.771423 37.6382V12.6801Z" fill="#79CA00"/>
<path d="M33.0179 16.4579H17.4038C16.3275 16.4579 15.4521 17.3251 15.4521 18.3915V31.9264C15.4521 32.9927 16.3275 33.8599 17.4038 33.8599H33.0179C34.0943 33.8599 34.9697 32.9927 34.9697 31.9264V18.3915C34.9697 17.3251 34.0943 16.4579 33.0179 16.4579ZM33.0189 22.2586C33.0179 22.2586 33.0179 22.2586 33.0189 22.2586H32.5651L29.9625 18.3915H33.0179L33.0189 22.2586ZM28.6265 28.0593L23.2591 30.9596V25.1589L28.6265 28.0593ZM27.6857 22.2586L25.0831 18.3915H27.6164L30.2191 22.2586H27.6857ZM25.3397 22.2586H22.8063L20.2036 18.3915H22.737L25.3397 22.2586ZM17.4038 18.3915H17.8576L20.4603 22.2586H17.4038V18.3915Z" fill="white"/>
</svg>
