<svg width="50" height="50" viewBox="0 0 50 50" fill="none" xmlns="http://www.w3.org/2000/svg">
<path d="M0.374237 12.6801C0.374237 6.07441 5.7292 0.719452 12.3349 0.719452H37.293C43.8987 0.719452 49.2536 6.07441 49.2536 12.6801V37.6382C49.2536 44.2439 43.8987 49.5989 37.293 49.5989H12.3349C5.72919 49.5989 0.374237 44.2439 0.374237 37.6382V12.6801Z" fill="#FF9B53"/>
<path d="M29.0044 14.2071C28.5119 13.7194 27.844 13.4455 27.1477 13.4455C26.4513 13.4455 25.7835 13.7194 25.2909 14.2071L13.7583 25.6333C13.5144 25.8749 13.3209 26.1617 13.1889 26.4774C13.0569 26.7932 12.989 27.1315 12.989 27.4732C12.989 27.815 13.0569 28.1533 13.1889 28.469C13.3209 28.7847 13.5144 29.0716 13.7583 29.3132L15.1265 30.6675C15.7218 31.2584 16.5589 31.1532 17.0643 30.8548C17.3432 30.6908 17.6692 30.6235 17.991 30.6635C18.3127 30.7034 18.6119 30.8485 18.8412 31.0756C19.0705 31.3028 19.2169 31.5992 19.2573 31.9179C19.2976 32.2367 19.2296 32.5597 19.0641 32.8359C18.7641 33.3367 18.6567 34.1659 19.2532 34.7557L20.6225 36.1111C20.8665 36.3527 21.156 36.5444 21.4747 36.6752C21.7934 36.8059 22.1349 36.8733 22.4799 36.8733C22.8248 36.8733 23.1664 36.8059 23.485 36.6752C23.8037 36.5444 24.0933 36.3527 24.3372 36.1111L35.8687 24.6872C36.1126 24.4456 36.3061 24.1588 36.4381 23.8431C36.5701 23.5273 36.638 23.189 36.638 22.8473C36.638 22.5055 36.5701 22.1672 36.4381 21.8515C36.3061 21.5358 36.1126 21.2489 35.8687 21.0073L34.5017 19.6519C33.9063 19.0621 33.0681 19.1661 32.5626 19.4645C32.2838 19.6285 31.9578 19.6959 31.636 19.6559C31.3142 19.6159 31.0151 19.4709 30.7858 19.2437C30.5565 19.0165 30.4101 18.7202 30.3697 18.4014C30.3294 18.0827 30.3973 17.7597 30.5629 17.4834C30.8641 16.9827 30.9703 16.1535 30.3738 15.5637L29.0056 14.2071H29.0044Z" fill="white"/>
</svg>
