<svg width="89" height="19" viewBox="0 0 89 19" fill="none" xmlns="http://www.w3.org/2000/svg">
<line x1="4.53857" y1="9.2796" x2="81.9477" y2="9.2796" stroke="#CCCCCC" stroke-width="0.74754" stroke-dasharray="2.24 2.24"/>
<path d="M43.8444 16.694H42.8237C42.7211 16.694 42.6202 16.6705 42.5302 16.6256C42.4401 16.5807 42.3638 16.516 42.3083 16.4372C42.2527 16.3584 42.2196 16.2682 42.2121 16.1747C42.2045 16.0812 42.2227 15.9875 42.265 15.9021L44.7367 10.9175L41.0254 10.8422L39.6718 12.3409C39.4138 12.6374 39.2079 12.7695 38.6825 12.7695H37.9954C37.8866 12.7727 37.7786 12.7518 37.6805 12.7088C37.5824 12.6657 37.497 12.6017 37.4318 12.5221C37.3405 12.4096 37.2508 12.219 37.3382 11.947L38.0982 9.45914C38.1039 9.44057 38.1108 9.422 38.1185 9.40378C38.1189 9.40204 38.1189 9.40026 38.1185 9.39852C38.1106 9.38032 38.1038 9.36171 38.0982 9.34281L37.3374 6.83913C37.255 6.57247 37.3451 6.38605 37.4356 6.27638C37.4964 6.20269 37.5752 6.14306 37.6658 6.10229C37.7563 6.06151 37.8561 6.04073 37.9571 6.0416H38.6825C39.0748 6.0416 39.4556 6.20244 39.6795 6.46209L41.005 7.93556L44.7367 7.88511L42.2658 2.90929C42.2234 2.82395 42.2052 2.73027 42.2126 2.6368C42.2201 2.54334 42.2531 2.45308 42.3086 2.37427C42.3641 2.29547 42.4403 2.23063 42.5303 2.18569C42.6203 2.14075 42.7212 2.11714 42.8237 2.11702H43.8555C43.9995 2.11966 44.1409 2.15191 44.2694 2.21136C44.3978 2.27081 44.51 2.35593 44.5975 2.46042L49.3924 7.78664L51.6076 7.73338C51.7698 7.72532 52.2191 7.72252 52.3231 7.72252C54.4419 7.72357 55.7073 8.3522 55.7073 9.40553C55.7073 9.73702 55.5624 10.3516 54.5926 10.7427C54.0202 10.974 53.2564 11.091 52.3223 11.091C52.2195 11.091 51.7713 11.0882 51.6068 11.0801L49.392 11.0262L44.5852 16.3524C44.4976 16.4564 44.3856 16.5411 44.2574 16.6003C44.1291 16.6594 43.988 16.6914 43.8444 16.694Z" fill="#1262AE"/>
<circle cx="4.73208" cy="9.65338" r="2.99016" fill="white" stroke="#1262AE" stroke-width="1.49508"/>
<circle cx="84.9809" cy="9.34164" r="2.99016" fill="white" stroke="#1262AE" stroke-width="1.49508"/>
</svg>
