<svg width="50" height="50" viewBox="0 0 50 50" fill="none" xmlns="http://www.w3.org/2000/svg">
<rect x="0.595764" y="0.719452" width="48.8794" height="48.8794" rx="11.9606" fill="#36DA76"/>
<path d="M31.3655 34.6863C31.3244 33.8091 31.2701 32.9366 31.2266 32.066C31.0859 29.3426 31.0975 26.5792 30.9503 23.8423C30.8031 21.1259 30.8904 18.4077 30.8128 15.6914C30.7971 15.1269 30.8223 14.012 30.2382 13.6902C28.9816 12.9988 28.2356 14.8846 27.9159 15.6523C27.3396 17.0458 27.0067 18.5114 26.5951 19.9551C26.2442 21.1909 25.8447 22.4226 25.7093 23.7021C25.609 24.6622 25.6182 25.7369 26.1198 26.602C26.3716 27.0367 26.8071 27.3326 27.3029 27.4577C27.8176 27.5894 28.406 27.417 28.8943 27.6494C29.0202 27.7102 29.1311 27.8366 29.1816 27.9642C29.3399 28.3756 29.1902 28.9996 29.1407 29.424C28.9839 30.791 28.8182 32.1717 28.744 33.5452C28.7001 34.3759 28.6516 35.4398 29.1541 36.1636C29.4621 36.6031 30.0863 37.0135 30.6496 36.795C31.4914 36.4728 31.4004 35.3843 31.3655 34.6863Z" fill="white"/>
<path d="M20.6558 14.2965C20.4139 14.3935 20.5056 15.2585 20.4948 15.5242C20.4789 16.0017 20.5115 16.6335 20.454 17.2523C20.4537 17.2578 20.4529 17.2616 20.4521 17.2655C20.4471 17.3085 20.443 17.3549 20.436 17.4038C20.4284 17.4511 20.4204 17.4967 20.4146 17.5436C20.363 17.8453 20.2649 18.2025 20.0793 18.3738C19.8686 18.5697 19.3965 18.5285 19.2325 18.297C18.9643 17.9202 18.9844 17.079 18.9681 17.0541C18.9572 16.6562 18.8992 15.4524 18.8122 14.6587C18.805 14.5989 18.7935 14.2392 18.465 14.2008C18.3119 14.1841 18.1507 14.3147 18.0985 14.553C17.9442 15.2567 17.7998 16.598 17.7907 16.8089C17.7888 16.8294 17.7879 16.8532 17.7878 16.8731C17.7878 16.8731 17.787 16.877 17.7875 16.8787C17.7865 16.9225 17.7343 17.9733 17.4684 18.3359C17.3294 18.5259 16.9685 18.6754 16.6099 18.4743C16.4671 18.3933 16.3692 18.2373 16.3002 18.0701C15.9252 16.9029 16.2619 15.6171 16.3098 15.0045C16.3239 14.8321 16.48 14.2568 16.1319 14.276C15.6077 14.3045 14.9307 16.5379 14.8097 17.0498C14.5129 18.3235 14.4679 19.6844 14.9841 20.9131C15.2709 21.5934 15.8317 22.1503 16.5272 22.4203C16.8346 22.5386 17.1762 22.6244 17.5379 22.6742C17.4077 25.5697 17.26 28.5913 17.1254 30.2728C17.0219 31.5383 16.8997 32.8176 16.9162 34.0884C16.9259 34.8476 16.9179 35.7528 17.4162 36.3894C17.9376 37.0544 19.0371 36.7485 19.334 35.9626C19.667 35.0767 19.5702 34.0444 19.4568 32.4179C19.3429 30.7897 19.2148 28.5685 19.1441 27.3735C19.0407 25.6138 19.0047 24.0761 18.9947 22.6731C19.9207 22.5408 20.7843 22.1435 21.2676 21.4128C21.4797 21.0932 21.6193 20.7361 21.7146 20.3687C21.8609 19.8122 21.9322 19.2026 21.9006 18.6285C21.8684 18.1 21.4341 13.9847 20.6558 14.2965Z" fill="white"/>
</svg>
