<svg width="50" height="50" viewBox="0 0 50 50" fill="none" xmlns="http://www.w3.org/2000/svg">
<rect x="0.15271" y="0.719452" width="48.8794" height="48.8794" rx="11.9606" fill="#F9668D"/>
<path d="M23.737 21.7672H25.449V20.9192C25.449 20.6943 25.5392 20.4786 25.6998 20.3196C25.8603 20.1606 26.078 20.0712 26.3051 20.0712H28.8731C29.1001 20.0712 29.3179 20.1606 29.4784 20.3196C29.6389 20.4786 29.7291 20.6943 29.7291 20.9192V21.7672H33.1532V18.3753C33.1532 17.4757 32.7924 16.6129 32.1503 15.9768C31.5082 15.3407 30.6372 14.9833 29.7291 14.9833H19.4569C18.5488 14.9833 17.6779 15.3407 17.0357 15.9768C16.3936 16.6129 16.0328 17.4757 16.0328 18.3753V21.7672H19.4569V20.9192C19.4569 20.6943 19.5471 20.4786 19.7076 20.3196C19.8682 20.1606 20.0859 20.0712 20.3129 20.0712H22.881C23.108 20.0712 23.3257 20.1606 23.4863 20.3196C23.6468 20.4786 23.737 20.6943 23.737 20.9192V21.7672Z" fill="white"/>
<path d="M16.8889 23.4632C15.7538 23.4632 14.6652 23.91 13.8626 24.7051C13.0599 25.5002 12.609 26.5787 12.609 27.7032V34.4871C12.609 34.712 12.6992 34.9277 12.8597 35.0868C13.0202 35.2458 13.238 35.3351 13.465 35.3351C13.692 35.3351 13.9097 35.2458 14.0703 35.0868C14.2308 34.9277 14.321 34.712 14.321 34.4871V30.2472H34.8645V34.4871C34.8645 34.712 34.9547 34.9277 35.1152 35.0868C35.2758 35.2458 35.4935 35.3351 35.7205 35.3351C35.9475 35.3351 36.1653 35.2458 36.3258 35.0868C36.4863 34.9277 36.5765 34.712 36.5765 34.4871V27.7032C36.5765 26.5787 36.1256 25.5002 35.3229 24.7051C34.5203 23.91 33.4317 23.4632 32.2966 23.4632H16.8889Z" fill="white"/>
</svg>
