<svg width="131" height="26" viewBox="0 0 131 26" fill="none" xmlns="http://www.w3.org/2000/svg">
<g clip-path="url(#clip0_1038_1489)">
<path d="M97.862 6.94175C98.8811 6.94175 99.8063 7.07137 100.638 7.3306C101.469 7.58984 102.171 7.92506 102.743 8.33626C103.1 8.58656 103.382 8.86367 103.588 9.1676C103.793 9.47154 103.896 9.86486 103.896 10.3476V19.7337L103.892 19.9889C103.862 20.8289 103.685 21.5618 103.36 22.1875C103.002 22.8759 102.515 23.448 101.898 23.9039C101.281 24.3598 100.557 24.695 99.7258 24.9095C98.8945 25.1241 98.005 25.2313 97.0575 25.2313C95.4305 25.2313 94.1522 25.0123 93.2225 24.5743C92.2929 24.1363 91.828 23.4256 91.828 22.4423C91.828 22.0311 91.913 21.6691 92.0828 21.3562C92.2526 21.0433 92.4448 20.8064 92.6594 20.6455C93.1779 20.9316 93.7634 21.1729 94.4159 21.3696C95.0685 21.5663 95.7434 21.6646 96.4407 21.6646C97.4061 21.6646 98.1749 21.5037 98.747 21.1819C99.3191 20.8601 99.6051 20.3416 99.6051 19.6265V19.1974L99.4012 19.2812C98.7083 19.5471 97.8823 19.6801 96.9234 19.6801C96.1189 19.6801 95.3545 19.5594 94.6305 19.3181C93.9064 19.0767 93.2717 18.7013 92.7264 18.1917C92.1811 17.6822 91.7431 17.0252 91.4124 16.2206C91.0816 15.4161 90.9162 14.4596 90.9162 13.3511C90.9162 12.2606 91.0906 11.313 91.4392 10.5085C91.7878 9.70396 92.2705 9.03799 92.8873 8.51057C93.5041 7.98316 94.2372 7.58984 95.0864 7.3306C95.9356 7.07137 96.8608 6.94175 97.862 6.94175ZM25.6766 7.35807C27.271 7.35807 28.5756 7.71583 29.5906 8.43134C30.6055 9.14686 31.2063 10.4107 31.393 12.2228H27.9865L27.9539 12.0223C27.8767 11.6271 27.7282 11.2662 27.5082 10.9395C27.1349 10.4262 26.5555 10.1696 25.77 10.1696C24.65 10.1696 23.8839 10.7257 23.4717 11.8378C23.254 12.4289 23.1451 13.2144 23.1451 14.1944C23.1451 15.1276 23.254 15.8782 23.4717 16.4459C23.8684 17.5036 24.615 18.0325 25.7116 18.0325C26.4894 18.0325 27.0416 17.8225 27.3682 17.4025C27.6948 16.9825 27.8932 16.4381 27.9632 15.7693H31.358L31.3349 16.0016C31.2223 16.9272 30.8644 17.8063 30.2614 18.6391C29.2192 20.0935 27.6754 20.8207 25.63 20.8207C23.5845 20.8207 22.0796 20.214 21.1152 19.0008C20.1508 17.7875 19.6686 16.2126 19.6686 14.276C19.6686 12.0906 20.2014 10.3912 21.2669 9.17797C22.3324 7.9647 23.8023 7.35807 25.6766 7.35807ZM56.5736 7.32307C57.6313 7.32307 58.584 7.52139 59.4318 7.91804C60.2795 8.31468 60.9795 8.94076 61.5316 9.79627C62.0294 10.5507 62.3522 11.4256 62.4999 12.4211C62.5855 13.0044 62.6205 13.8444 62.6049 14.941H53.9021L53.914 15.1621C53.9971 16.3204 54.3936 17.1411 55.1037 17.6242C55.5625 17.943 56.1147 18.1025 56.7602 18.1025C57.4446 18.1025 58.0007 17.908 58.4285 17.5192C58.6618 17.3092 58.8679 17.0175 59.0468 16.6442H62.4416L62.4164 16.8185C62.2938 17.5165 61.9094 18.2245 61.2633 18.9424C60.1745 20.179 58.6501 20.7973 56.6902 20.7973C55.0726 20.7973 53.6454 20.2762 52.4088 19.2341C51.1722 18.1919 50.5539 16.4965 50.5539 14.1477C50.5539 11.9467 51.1119 10.259 52.228 9.08464C53.344 7.91026 54.7926 7.32307 56.5736 7.32307ZM79.9186 2.65094C80.3119 2.65094 80.665 2.67775 80.9779 2.73139C81.2908 2.78502 81.5545 2.8923 81.769 3.0532C81.9836 3.21411 82.1489 3.43312 82.2651 3.71023C82.3813 3.98735 82.4395 4.34938 82.4395 4.79634V20.3505L82.3494 20.3667C82.1579 20.4006 81.8974 20.4444 81.5679 20.498C81.1835 20.5606 80.7946 20.5919 80.4013 20.5919C80.008 20.5919 79.6549 20.5651 79.342 20.5114C79.0292 20.4578 78.7654 20.3505 78.5509 20.1896C78.3364 20.0287 78.171 19.8097 78.0548 19.5326C77.9386 19.2555 77.8805 18.8934 77.8805 18.4465V2.8923L77.9705 2.87615C78.162 2.84222 78.4226 2.79843 78.752 2.7448C79.1364 2.68222 79.5253 2.65094 79.9186 2.65094ZM86.7717 7.29038C87.165 7.29038 87.5181 7.31719 87.831 7.37083C88.1439 7.42446 88.4076 7.53173 88.6221 7.69264C88.8367 7.85354 89.002 8.07256 89.1182 8.34967C89.2345 8.62678 89.2926 8.98882 89.2926 9.43578V20.3505L89.2025 20.3667C89.011 20.4006 88.7505 20.4444 88.421 20.498C88.0366 20.5606 87.6478 20.5919 87.2544 20.5919C86.8611 20.5919 86.508 20.5651 86.1951 20.5114C85.8823 20.4578 85.6186 20.3505 85.404 20.1896C85.1895 20.0287 85.0241 19.8097 84.9079 19.5326C84.7917 19.2555 84.7336 18.8934 84.7336 18.4465V7.53173L84.8236 7.51559C85.0152 7.48166 85.2757 7.43787 85.6051 7.38424C85.9895 7.32166 86.3784 7.29038 86.7717 7.29038ZM108.121 2.65094C108.514 2.65094 108.867 2.67775 109.18 2.73139C109.493 2.78502 109.757 2.8923 109.971 3.0532C110.186 3.21411 110.351 3.43312 110.467 3.71023C110.584 3.98735 110.642 4.34938 110.642 4.79634V7.42446L110.735 7.39031C110.964 7.30916 111.287 7.21774 111.701 7.11606C112.175 6.99985 112.698 6.94175 113.27 6.94175C115.04 6.94175 116.421 7.38424 117.413 8.26922C118.405 9.1542 118.902 10.4727 118.902 12.2248V20.3505L118.819 20.3735C118.64 20.4195 118.386 20.4655 118.057 20.5114C117.672 20.5651 117.275 20.5919 116.863 20.5919C116.47 20.5919 116.117 20.5651 115.804 20.5114C115.491 20.4578 115.228 20.3505 115.013 20.1896C114.798 20.0287 114.633 19.8097 114.517 19.5326C114.401 19.2555 114.343 18.8934 114.343 18.4465V12.493L114.339 12.3277C114.313 11.6822 114.131 11.2233 113.793 10.951C113.426 10.656 112.975 10.5085 112.439 10.5085C112.081 10.5085 111.741 10.5532 111.419 10.6426C111.098 10.732 110.838 10.8392 110.642 10.9644V20.3505L110.559 20.3735C110.38 20.4195 110.127 20.4655 109.797 20.5114C109.413 20.5651 109.015 20.5919 108.604 20.5919C108.21 20.5919 107.857 20.5651 107.544 20.5114C107.231 20.4578 106.968 20.3505 106.753 20.1896C106.539 20.0287 106.373 19.8097 106.257 19.5326C106.141 19.2555 106.083 18.8934 106.083 18.4465V2.8923L106.173 2.87615C106.364 2.84222 106.625 2.79843 106.954 2.7448C107.339 2.68222 107.728 2.65094 108.121 2.65094ZM76.0154 4.1259L76.0769 4.22982C76.1774 4.41233 76.2687 4.6414 76.3506 4.91702C76.449 5.24777 76.4981 5.59193 76.4981 5.9495C76.4981 6.64675 76.3506 7.14288 76.0557 7.43787C75.7607 7.73287 75.3629 7.88036 74.8623 7.88036H69.2306V10.9107H75.1036L75.1733 11.0143C75.2863 11.1956 75.3837 11.4203 75.4657 11.6885C75.564 12.0103 75.6132 12.35 75.6132 12.7075C75.6132 13.3869 75.4657 13.8741 75.1707 14.1691C74.8757 14.4641 74.4779 14.6116 73.9773 14.6116H69.2842V20.2701L69.1931 20.2931C68.9972 20.339 68.7191 20.385 68.359 20.431C67.9389 20.4846 67.5232 20.5114 67.112 20.5114C66.7008 20.5114 66.3388 20.4801 66.0259 20.4176C65.713 20.355 65.4493 20.2433 65.2348 20.0824C65.0202 19.9214 64.8593 19.698 64.752 19.4119C64.6448 19.1259 64.5911 18.7504 64.5911 18.2856V6.61994L64.5958 6.4311C64.6299 5.75097 64.8519 5.20605 65.2616 4.79634C65.7085 4.34938 66.3164 4.1259 67.0852 4.1259H76.0154ZM12.9843 3.20496V6.22646H4.36314V10.1812H11.9111V13.1677H4.36314V20.3773H0.793335V3.20496H12.9843ZM17.8547 7.66138V20.3773H14.4832V7.66138H17.8547ZM36.2284 3.23996V12.5028L40.3698 7.71971H44.4879L40.0432 12.5844L44.6629 20.3773H40.6498L37.605 14.941L36.2284 16.3759V20.3773H32.9619V3.23996H36.2284ZM48.9967 3.18163V20.3773H45.6719V3.18163H48.9967ZM119.15 4.01562C119.707 3.84803 120.658 3.81075 121.772 4.30316C122.896 4.80026 123.597 5.6529 123.875 6.86108L129.909 7.37391C129.984 7.37824 130.058 7.39338 130.132 7.41932C130.243 7.45824 130.302 7.51298 130.352 7.55584C130.475 7.66092 130.515 7.74195 130.573 7.88704C130.677 8.14503 130.645 8.44869 130.51 8.65689C130.292 8.99257 129.951 9.20977 129.486 9.30847L124.615 10.3439L125.475 14.3893C125.574 14.8536 125.792 15.1527 126.128 15.2866C126.464 15.4204 126.901 15.4303 127.436 15.3165C127.704 15.2595 127.976 15.1783 128.253 15.0729C128.529 14.9676 128.767 14.8564 128.966 14.7394C129.168 14.9017 129.353 15.091 129.521 15.3075C129.688 15.5239 129.808 15.8018 129.88 16.1412C130.146 17.3956 128.172 18.5808 126.878 18.8134C125.679 19.0288 123.84 19.2077 122.788 16.4532C121.737 13.6988 120.086 9.08164 118.825 5.2339C118.716 4.90185 118.649 4.57572 118.766 4.3066C118.829 4.16114 118.875 4.09835 119.15 4.01562ZM98.0765 10.5085C97.2005 10.5085 96.5435 10.7543 96.1054 11.246C95.6674 11.7376 95.4484 12.4393 95.4484 13.3511C95.4484 14.3881 95.6674 15.1345 96.1054 15.5904C96.5435 16.0463 97.1022 16.2743 97.7815 16.2743C98.5145 16.2743 99.0956 16.1044 99.5247 15.7647V10.8303L99.4426 10.7874C99.3239 10.7302 99.168 10.673 98.9749 10.6158C98.7336 10.5442 98.4341 10.5085 98.0765 10.5085ZM56.5736 10.0646C55.8036 10.0646 55.2067 10.3057 54.7828 10.7879C54.359 11.2701 54.0926 11.9234 53.9837 12.7478H59.1518C59.0973 11.8689 58.831 11.202 58.3527 10.747C57.8743 10.2921 57.2813 10.0646 56.5736 10.0646ZM17.8547 3.07664V6.1448H14.4832V3.07664H17.8547ZM87.0131 1.31006C87.764 1.31006 88.3674 1.54248 88.8232 2.00732C89.2792 2.47215 89.5071 3.04426 89.5071 3.72364C89.5071 4.40302 89.2792 4.97513 88.8232 5.43996C88.3674 5.9048 87.764 6.13722 87.0131 6.13722C86.2622 6.13722 85.6588 5.9048 85.2029 5.43996C84.747 4.97513 84.519 4.40302 84.519 3.72364C84.519 3.04426 84.747 2.47215 85.2029 2.00732C85.6588 1.54248 86.2622 1.31006 87.0131 1.31006Z" fill="white"/>
</g>
<defs>
<clipPath id="clip0_1038_1489">
<rect width="130.072" height="24.6688" fill="white" transform="translate(0.793335 0.917358)"/>
</clipPath>
</defs>
</svg>
