<svg width="19" height="19" viewBox="0 0 19 19" fill="none" xmlns="http://www.w3.org/2000/svg">
<g clip-path="url(#clip0_1038_1176)">
<path d="M17.0267 13.9307C16.5461 13.5022 16.1254 13.0111 15.7758 12.4705C15.3941 11.7242 15.1654 10.9092 15.103 10.0734V7.61145C15.1063 6.29858 14.6301 5.02969 13.7638 4.04318C12.8975 3.05668 11.7008 2.42047 10.3985 2.25409V1.6112C10.3985 1.43475 10.3284 1.26553 10.2036 1.14076C10.0788 1.01599 9.90962 0.945892 9.73317 0.945892C9.55672 0.945892 9.38749 1.01599 9.26272 1.14076C9.13795 1.26553 9.06786 1.43475 9.06786 1.6112V2.26405C7.77724 2.44243 6.59498 3.08249 5.74008 4.06568C4.88517 5.04887 4.41554 6.30856 4.41816 7.61145V10.0734C4.35575 10.9092 4.12701 11.7242 3.74538 12.4705C3.40195 13.0099 2.98797 13.5009 2.51443 13.9307C2.46127 13.9774 2.41866 14.0348 2.38945 14.0993C2.36023 14.1637 2.34508 14.2337 2.34499 14.3044V14.9822C2.34499 15.1144 2.39749 15.2411 2.49095 15.3346C2.58441 15.428 2.71117 15.4806 2.84335 15.4806H16.6977C16.8299 15.4806 16.9567 15.428 17.0501 15.3346C17.1436 15.2411 17.1961 15.1144 17.1961 14.9822V14.3044C17.196 14.2337 17.1809 14.1637 17.1516 14.0993C17.1224 14.0348 17.0798 13.9774 17.0267 13.9307ZM3.38157 14.4838C3.84525 14.0359 4.2535 13.534 4.59757 12.9888C5.0783 12.0875 5.35878 11.093 5.41987 10.0734V7.61145C5.4001 7.02739 5.49807 6.44533 5.70794 5.89992C5.91781 5.35451 6.23529 4.85691 6.64147 4.43675C7.04765 4.01659 7.53423 3.68247 8.07223 3.45427C8.61022 3.22608 9.18864 3.10848 9.77304 3.10848C10.3574 3.10848 10.9359 3.22608 11.4738 3.45427C12.0118 3.68247 12.4984 4.01659 12.9046 4.43675C13.3108 4.85691 13.6283 5.35451 13.8381 5.89992C14.048 6.44533 14.146 7.02739 14.1262 7.61145V10.0734C14.1873 11.093 14.4678 12.0875 14.9485 12.9888C15.2926 13.534 15.7008 14.0359 16.1645 14.4838H3.38157Z" fill="#424242"/>
<path d="M9.7956 17.1155C10.1095 17.1082 10.4108 16.9902 10.6461 16.7823C10.8814 16.5743 11.0356 16.2899 11.0814 15.9792H8.45999C8.50707 16.2983 8.66847 16.5895 8.91415 16.7985C9.15983 17.0075 9.47307 17.1201 9.7956 17.1155Z" fill="#424242"/>
<circle cx="14.6221" cy="4.12589" r="2.61639" fill="#F99A0E" stroke="white" stroke-width="0.74754"/>
</g>
<defs>
<clipPath id="clip0_1038_1176">
<rect width="17.941" height="17.941" fill="white" transform="translate(0.825089 0.0614929)"/>
</clipPath>
</defs>
</svg>
