<svg width="98" height="23" viewBox="0 0 98 23" fill="none" xmlns="http://www.w3.org/2000/svg">
<g clip-path="url(#clip0_1038_1495)">
<path d="M12.0065 0.966064C6.06133 0.966064 1.24194 5.78545 1.24194 11.7306C1.24194 17.6758 6.06133 22.4952 12.0065 22.4952C17.9517 22.4952 22.7711 17.6758 22.7711 11.7306C22.7711 5.78545 17.9517 0.966064 12.0065 0.966064ZM14.5564 8.40483H12.9383C12.7466 8.40483 12.5335 8.65713 12.5335 8.9924V10.1608H14.5575L14.2514 11.8271H12.5335V16.8292H10.6239V11.8271H8.89152V10.1608H10.6239V9.18078C10.6239 7.77465 11.5995 6.63204 12.9383 6.63204H14.5564V8.40483Z" fill="white"/>
</g>
<g clip-path="url(#clip1_1038_1495)">
<path d="M86.7605 0.966064C80.8153 0.966064 75.9959 5.78545 75.9959 11.7306C75.9959 17.6758 80.8153 22.4952 86.7605 22.4952C92.7057 22.4952 97.5251 17.6758 97.5251 11.7306C97.5251 5.78545 92.7057 0.966064 86.7605 0.966064ZM91.1392 9.78404C91.1437 9.87599 91.1448 9.96794 91.1448 10.0576C91.1448 12.8609 89.0132 16.0914 85.1133 16.0914C83.9609 16.0933 82.8325 15.7624 81.8637 15.1383C82.0286 15.1585 82.1979 15.1663 82.3694 15.1663C83.3629 15.1663 84.2768 14.8288 85.0023 14.2592C84.5602 14.2505 84.1318 14.1041 83.7768 13.8404C83.4218 13.5767 83.158 13.2088 83.022 12.788C83.3395 12.8484 83.6666 12.8357 83.9785 12.751C83.4986 12.654 83.0671 12.394 82.7571 12.0151C82.447 11.6362 82.2776 11.1617 82.2775 10.6721V10.6463C82.5634 10.8044 82.8908 10.9009 83.2384 10.9121C82.7886 10.6126 82.4701 10.1526 82.3482 9.62609C82.2262 9.09959 82.3101 8.5464 82.5825 8.07965C83.1151 8.7345 83.7792 9.2702 84.532 9.65208C85.2847 10.034 86.1093 10.2535 86.9522 10.2965C86.8451 9.84157 86.8912 9.36401 87.0834 8.93802C87.2757 8.51203 87.6033 8.1615 88.0153 7.94091C88.4273 7.72031 88.9007 7.64203 89.3618 7.71822C89.8229 7.79441 90.2459 8.02081 90.5651 8.36222C91.0396 8.26834 91.4946 8.09429 91.9107 7.84754C91.7525 8.33882 91.4214 8.756 90.9789 9.02155C91.3992 8.97093 91.8096 8.85793 92.1966 8.68628C91.9123 9.11226 91.5542 9.48402 91.1392 9.78404Z" fill="white"/>
</g>
<g clip-path="url(#clip2_1038_1495)">
<path d="M52.7474 11.7306C52.7474 12.6228 52.393 13.4784 51.7621 14.1093C51.1313 14.7402 50.2756 15.0946 49.3835 15.0946C48.4913 15.0946 47.6357 14.7402 47.0048 14.1093C46.374 13.4784 46.0195 12.6228 46.0195 11.7306C46.0195 11.5389 46.0397 11.3516 46.0745 11.17H44.8982V15.6519C44.8982 15.9636 45.1505 16.2159 45.4622 16.2159H53.3058C53.4552 16.2156 53.5984 16.156 53.7039 16.0503C53.8094 15.9445 53.8687 15.8012 53.8687 15.6519V11.17H52.6925C52.7272 11.3516 52.7474 11.5389 52.7474 11.7306ZM49.3835 13.9733C49.678 13.9732 49.9697 13.9151 50.2419 13.8023C50.514 13.6895 50.7612 13.5242 50.9695 13.3158C51.1777 13.1075 51.3429 12.8602 51.4556 12.588C51.5682 12.3158 51.6262 12.0241 51.6261 11.7295C51.626 11.4349 51.5679 11.1433 51.4551 10.8711C51.3423 10.599 51.177 10.3518 50.9687 10.1435C50.7603 9.93526 50.513 9.77009 50.2408 9.65743C49.9686 9.54477 49.6769 9.48682 49.3823 9.48689C48.7874 9.48704 48.2169 9.72352 47.7963 10.1443C47.3758 10.5651 47.1396 11.1357 47.1397 11.7306C47.1399 12.3256 47.3764 12.8961 47.7971 13.3166C48.2179 13.7372 48.7885 13.9734 49.3835 13.9733ZM52.0746 9.37589H53.4191C53.5084 9.37589 53.5941 9.34048 53.6573 9.27743C53.7206 9.21437 53.7563 9.12881 53.7566 9.03949V7.69504C53.7566 7.60553 53.721 7.51968 53.6577 7.45638C53.5944 7.39309 53.5086 7.35753 53.4191 7.35753H52.0746C51.9851 7.35753 51.8992 7.39309 51.836 7.45638C51.7727 7.51968 51.7371 7.60553 51.7371 7.69504V9.03949C51.7382 9.22451 51.8896 9.37589 52.0746 9.37589ZM49.3835 0.966064C46.5285 0.966064 43.7905 2.10019 41.7718 4.11893C39.753 6.13768 38.6189 8.87569 38.6189 11.7306C38.6189 14.5856 39.753 17.3236 41.7718 19.3423C43.7905 21.3611 46.5285 22.4952 49.3835 22.4952C50.7971 22.4952 52.1969 22.2168 53.5029 21.6758C54.8089 21.1348 55.9956 20.3419 56.9952 19.3423C57.9948 18.3428 58.7877 17.1561 59.3286 15.8501C59.8696 14.544 60.148 13.1443 60.148 11.7306C60.148 10.317 59.8696 8.91723 59.3286 7.61121C58.7877 6.30519 57.9948 5.11852 56.9952 4.11893C55.9956 3.11935 54.8089 2.32644 53.5029 1.78547C52.1969 1.2445 50.7971 0.966064 49.3835 0.966064ZM54.99 16.0914C54.99 16.7765 54.4294 17.3372 53.7442 17.3372H45.0227C44.3376 17.3372 43.7769 16.7765 43.7769 16.0914V7.36986C43.7769 6.68474 44.3376 6.12409 45.0227 6.12409H53.7442C54.4294 6.12409 54.99 6.68474 54.99 7.36986V16.0914Z" fill="white"/>
</g>
<defs>
<clipPath id="clip0_1038_1495">
<rect width="22.4262" height="22.4262" fill="white" transform="translate(0.793335 0.517334)"/>
</clipPath>
<clipPath id="clip1_1038_1495">
<rect width="22.4262" height="22.4262" fill="white" transform="translate(75.5472 0.517334)"/>
</clipPath>
<clipPath id="clip2_1038_1495">
<rect width="22.4262" height="22.4262" fill="white" transform="translate(38.1703 0.517334)"/>
</clipPath>
</defs>
</svg>
