<svg width="14" height="14" viewBox="0 0 14 14" fill="none" xmlns="http://www.w3.org/2000/svg">
<path d="M12.9766 4.74807L9.23964 4.16183L7.5691 0.506187C7.52348 0.406097 7.44841 0.325073 7.35569 0.275822C7.12314 0.151902 6.84054 0.255169 6.72427 0.506187L5.05373 4.16183L1.31672 4.74807C1.2137 4.76396 1.1195 4.81639 1.04738 4.89582C0.960188 4.99255 0.912143 5.12269 0.913799 5.25764C0.915455 5.39259 0.966676 5.52131 1.05621 5.61551L3.75998 8.46091L3.1212 12.4788C3.10622 12.5722 3.1158 12.6684 3.14886 12.7563C3.18192 12.8441 3.23713 12.9203 3.30823 12.976C3.37933 13.0318 3.46347 13.0649 3.55113 13.0716C3.63878 13.0784 3.72643 13.0585 3.80414 13.0142L7.14669 11.1173L10.4892 13.0142C10.5805 13.0666 10.6865 13.0841 10.788 13.065C11.0441 13.0174 11.2163 12.7552 11.1722 12.4788L10.5334 8.46091L13.2372 5.61551C13.3108 5.53766 13.3593 5.43599 13.374 5.32478C13.4138 5.04675 13.2342 4.78938 12.9766 4.74807Z" fill="#FDBF00"/>
</svg>
