<svg width="14" height="14" viewBox="0 0 14 14" fill="none" xmlns="http://www.w3.org/2000/svg">
<path d="M12.7411 4.74807L9.01127 4.16183L7.34394 0.506187C7.2984 0.406097 7.22348 0.325073 7.13093 0.275822C6.89882 0.151902 6.61677 0.255169 6.50072 0.506187L4.83338 4.16183L1.10355 4.74807C1.00072 4.76396 0.906701 4.81639 0.834719 4.89582C0.747697 4.99255 0.699744 5.12269 0.701396 5.25764C0.703049 5.39259 0.754172 5.52131 0.843533 5.61551L3.54212 8.46091L2.90456 12.4788C2.88961 12.5722 2.89918 12.6684 2.93217 12.7563C2.96516 12.8441 3.02027 12.9203 3.09123 12.976C3.16219 13.0318 3.24618 13.0649 3.33366 13.0716C3.42115 13.0784 3.50863 13.0585 3.58619 13.0142L6.92233 11.1173L10.2585 13.0142C10.3495 13.0666 10.4553 13.0841 10.5567 13.065C10.8123 13.0174 10.9842 12.7552 10.9401 12.4788L10.3025 8.46091L13.0011 5.61551C13.0746 5.53766 13.123 5.43599 13.1377 5.32478C13.1774 5.04675 12.9982 4.78938 12.7411 4.74807Z" fill="#FDBF00"/>
</svg>
