<svg width="13" height="14" viewBox="0 0 13 14" fill="none" xmlns="http://www.w3.org/2000/svg">
<path d="M12.5284 4.74807L8.79861 4.16183L7.13128 0.506187C7.08574 0.406097 7.01082 0.325073 6.91827 0.275822C6.68617 0.151902 6.40412 0.255169 6.28807 0.506187L4.62073 4.16183L0.890902 4.74807C0.788071 4.76396 0.694054 4.81639 0.622072 4.89582C0.53505 4.99255 0.487097 5.12269 0.48875 5.25764C0.490403 5.39259 0.541526 5.52131 0.630886 5.61551L3.32947 8.46091L2.69192 12.4788C2.67696 12.5722 2.68653 12.6684 2.71952 12.7563C2.75251 12.8441 2.80762 12.9203 2.87858 12.976C2.94955 13.0318 3.03353 13.0649 3.12101 13.0716C3.2085 13.0784 3.29598 13.0585 3.37354 13.0142L6.70967 11.1173L10.0458 13.0142C10.1369 13.0666 10.2427 13.0841 10.344 13.065C10.5996 13.0174 10.7715 12.7552 10.7274 12.4788L10.0899 8.46091L12.7885 5.61551C12.8619 5.53766 12.9104 5.43599 12.9251 5.32478C12.9647 5.04675 12.7855 4.78938 12.5284 4.74807V4.74807Z" fill="#FDBF00"/>
</svg>
