<svg width="13" height="14" viewBox="0 0 13 14" fill="none" xmlns="http://www.w3.org/2000/svg">
<path d="M12.1664 4.74807L8.43659 4.16183L6.76927 0.506187C6.72373 0.406097 6.64881 0.325073 6.55626 0.275822C6.32415 0.151902 6.0421 0.255169 5.92605 0.506187L4.25872 4.16183L0.528902 4.74807C0.426071 4.76396 0.332054 4.81639 0.260072 4.89582C0.173051 4.99255 0.125098 5.12269 0.12675 5.25764C0.128403 5.39259 0.179526 5.52131 0.268886 5.61551L2.96746 8.46091L2.32991 12.4788C2.31496 12.5722 2.32452 12.6684 2.35752 12.7563C2.39051 12.8441 2.44561 12.9203 2.51658 12.976C2.58754 13.0318 2.67152 13.0649 2.75901 13.0716C2.84649 13.0784 2.93397 13.0585 3.01153 13.0142L6.34766 11.1173L9.68379 13.0142C9.77486 13.0666 9.88063 13.0841 9.982 13.065C10.2376 13.0174 10.4095 12.7552 10.3654 12.4788L9.72786 8.46091L12.4264 5.61551C12.4999 5.53766 12.5484 5.43599 12.563 5.32478C12.6027 5.04675 12.4235 4.78938 12.1664 4.74807V4.74807Z" fill="#FDBF00"/>
</svg>
