<svg width="20" height="19" viewBox="0 0 20 19" fill="none" xmlns="http://www.w3.org/2000/svg">
<g clip-path="url(#clip0_1038_1398)">
<path d="M9.98016 17.106C7.9374 17.106 5.97831 16.2945 4.53386 14.85C3.08941 13.4056 2.27793 11.4465 2.27793 9.40374C2.27793 7.36098 3.08941 5.40189 4.53386 3.95744C5.97831 2.513 7.9374 1.70151 9.98016 1.70151C12.0229 1.70151 13.982 2.513 15.4265 3.95744C16.8709 5.40189 17.6824 7.36098 17.6824 9.40374C17.6824 11.4465 16.8709 13.4056 15.4265 14.85C13.982 16.2945 12.0229 17.106 9.98016 17.106ZM9.98016 18.2063C12.3147 18.2063 14.5537 17.2789 16.2045 15.6281C17.8553 13.9773 18.7827 11.7383 18.7827 9.40374C18.7827 7.06916 17.8553 4.8302 16.2045 3.1794C14.5537 1.5286 12.3147 0.601196 9.98016 0.601196C7.64558 0.601196 5.40662 1.5286 3.75582 3.1794C2.10502 4.8302 1.17761 7.06916 1.17761 9.40374C1.17761 11.7383 2.10502 13.9773 3.75582 15.6281C5.40662 17.2789 7.64558 18.2063 9.98016 18.2063V18.2063Z" fill="#1262AF"/>
<path d="M8.01515 5.66599C8.11895 5.61254 8.23548 5.58876 8.35193 5.59727C8.46837 5.60578 8.58021 5.64625 8.67513 5.71422L13.1173 8.88719C13.1996 8.94589 13.2666 9.02339 13.3129 9.11324C13.3591 9.20309 13.3833 9.30269 13.3833 9.40375C13.3833 9.50481 13.3591 9.60441 13.3129 9.69426C13.2666 9.7841 13.1996 9.8616 13.1173 9.92031L8.67513 13.0933C8.58024 13.1612 8.46846 13.2016 8.35207 13.2101C8.23569 13.2186 8.11922 13.1949 8.01545 13.1415C7.91169 13.0881 7.82466 13.0072 7.76393 12.9075C7.70319 12.8079 7.67111 12.6934 7.6712 12.5767V6.23078C7.67108 6.11412 7.70312 5.99968 7.7638 5.90004C7.82448 5.8004 7.91145 5.71942 8.01515 5.66599V5.66599Z" fill="#1262AF"/>
</g>
<defs>
<clipPath id="clip0_1038_1398">
<rect width="18.6885" height="18.6885" fill="white" transform="translate(0.635864 0.0595703)"/>
</clipPath>
</defs>
</svg>
