<svg width="19" height="19" viewBox="0 0 19 19" fill="none" xmlns="http://www.w3.org/2000/svg">
<g clip-path="url(#clip0_1038_1444)">
<path d="M9.6181 17.106C7.57535 17.106 5.61626 16.2945 4.17181 14.85C2.72736 13.4056 1.91588 11.4465 1.91588 9.40374C1.91588 7.36098 2.72736 5.40189 4.17181 3.95744C5.61626 2.513 7.57535 1.70151 9.6181 1.70151C11.6609 1.70151 13.62 2.513 15.0644 3.95744C16.5088 5.40189 17.3203 7.36098 17.3203 9.40374C17.3203 11.4465 16.5088 13.4056 15.0644 14.85C13.62 16.2945 11.6609 17.106 9.6181 17.106ZM9.6181 18.2063C11.9527 18.2063 14.1916 17.2789 15.8424 15.6281C17.4932 13.9773 18.4207 11.7383 18.4207 9.40374C18.4207 7.06916 17.4932 4.8302 15.8424 3.1794C14.1916 1.5286 11.9527 0.601196 9.6181 0.601196C7.28352 0.601196 5.04456 1.5286 3.39377 3.1794C1.74297 4.8302 0.815559 7.06916 0.815559 9.40374C0.815559 11.7383 1.74297 13.9773 3.39377 15.6281C5.04456 17.2789 7.28352 18.2063 9.6181 18.2063V18.2063Z" fill="#1262AF"/>
<path d="M7.65313 5.66599C7.75693 5.61254 7.87346 5.58876 7.9899 5.59727C8.10635 5.60578 8.21818 5.64625 8.31311 5.71422L12.7553 8.88719C12.8375 8.94589 12.9046 9.02339 12.9508 9.11324C12.9971 9.20309 13.0212 9.30269 13.0212 9.40375C13.0212 9.50481 12.9971 9.60441 12.9508 9.69426C12.9046 9.7841 12.8375 9.8616 12.7553 9.92031L8.31311 13.0933C8.21822 13.1612 8.10643 13.2016 7.99005 13.2101C7.87367 13.2186 7.75719 13.1949 7.65343 13.1415C7.54967 13.0881 7.46264 13.0072 7.4019 12.9075C7.34117 12.8079 7.30909 12.6934 7.30918 12.5767V6.23078C7.30906 6.11412 7.3411 5.99968 7.40178 5.90004C7.46246 5.8004 7.54943 5.71942 7.65313 5.66599V5.66599Z" fill="#1262AF"/>
</g>
<defs>
<clipPath id="clip0_1038_1444">
<rect width="18.6885" height="18.6885" fill="white" transform="translate(0.273865 0.0595703)"/>
</clipPath>
</defs>
</svg>
