<svg width="368" height="70" viewBox="0 0 368 70" fill="none" xmlns="http://www.w3.org/2000/svg">
<g clip-path="url(#clip0_146_696)">
<path d="M274.239 17.5732C277.112 17.5732 279.721 17.9363 282.065 18.6626C284.409 19.3889 286.387 20.3281 288 21.4801C289.008 22.1813 289.802 22.9577 290.382 23.8092C290.962 24.6607 291.252 25.7627 291.252 27.1151V53.4117L291.239 54.1267C291.156 56.4801 290.656 58.5333 289.739 60.2864C288.731 62.2148 287.358 63.8177 285.618 65.0949C283.879 66.3722 281.838 67.3114 279.494 67.9124C277.15 68.5135 274.642 68.814 271.97 68.814C267.383 68.814 263.779 68.2004 261.157 66.9733C258.536 65.7461 257.225 63.7551 257.225 61.0002C257.225 59.8481 257.465 58.8338 257.944 57.9573C258.423 57.0807 258.965 56.417 259.57 55.9662C261.031 56.7677 262.682 57.4439 264.522 57.9948C266.362 58.5458 268.265 58.8213 270.231 58.8213C272.953 58.8213 275.121 58.3705 276.734 57.4689C278.347 56.5673 279.153 55.1147 279.153 53.1112V51.9091L278.579 52.1438C276.625 52.8889 274.296 53.2615 271.592 53.2615C269.324 53.2615 267.169 52.9234 265.127 52.2472C263.086 51.571 261.296 50.5191 259.759 49.0916C258.221 47.664 256.986 45.8233 256.053 43.5693C255.121 41.3153 254.655 38.6355 254.655 35.53C254.655 32.4746 255.146 29.8199 256.129 27.5659C257.112 25.3119 258.473 23.4461 260.212 21.9685C261.951 20.4909 264.018 19.3889 266.413 18.6626C268.807 17.9363 271.416 17.5732 274.239 17.5732ZM70.7076 18.7396C75.2029 18.7396 78.8815 19.7419 81.7432 21.7465C84.6049 23.7511 86.2989 27.2919 86.8252 32.3688H77.2204L77.1284 31.8072C76.9109 30.6999 76.492 29.6887 75.8718 28.7735C74.8192 27.3355 73.1855 26.6164 70.9707 26.6164C67.813 26.6164 65.653 28.1743 64.4908 31.2902C63.8768 32.9462 63.5698 35.1469 63.5698 37.8924C63.5698 40.5071 63.8768 42.6098 64.4908 44.2004C65.6091 47.1637 67.7143 48.6454 70.8062 48.6454C72.9991 48.6454 74.556 48.0571 75.4771 46.8805C76.3981 45.7039 76.9572 44.1786 77.1546 42.3047H86.7265L86.6615 42.9557C86.3438 45.5488 85.3348 48.0119 83.6345 50.345C80.6961 54.4196 76.3432 56.4569 70.576 56.4569C64.8087 56.4569 60.5655 54.7573 57.8464 51.3582C55.1272 47.9591 53.7676 43.5467 53.7676 38.1212C53.7676 31.9984 55.2697 27.2374 58.274 23.8383C61.2782 20.4391 65.4227 18.7396 70.7076 18.7396ZM157.823 18.6415C160.806 18.6415 163.492 19.1971 165.882 20.3084C168.272 21.4196 170.246 23.1737 171.803 25.5705C173.206 27.6841 174.116 30.1354 174.533 32.9244C174.774 34.5586 174.873 36.9119 174.829 39.9842H150.291L150.324 40.6037C150.559 43.8487 151.677 46.148 153.679 47.5015C154.973 48.3948 156.53 48.8415 158.35 48.8415C160.279 48.8415 161.847 48.2968 163.053 47.2073C163.711 46.619 164.292 45.8019 164.797 44.756H174.369L174.298 45.2444C173.952 47.2 172.868 49.1835 171.046 51.1948C167.976 54.6593 163.678 56.3915 158.152 56.3915C153.591 56.3915 149.567 54.9316 146.081 52.0119C142.594 49.0921 140.851 44.342 140.851 37.7617C140.851 31.5953 142.424 26.867 145.571 23.5768C148.718 20.2866 152.802 18.6415 157.823 18.6415ZM223.646 5.55187C224.755 5.55187 225.751 5.627 226.633 5.77727C227.515 5.92753 228.259 6.22807 228.863 6.67887C229.468 7.12966 229.935 7.74325 230.262 8.51963C230.59 9.29601 230.754 10.3103 230.754 11.5625V55.1398L230.5 55.185C229.96 55.2801 229.225 55.4027 228.296 55.553C227.213 55.7283 226.116 55.816 225.007 55.816C223.898 55.816 222.903 55.7408 222.02 55.5906C221.138 55.4403 220.395 55.1398 219.79 54.689C219.185 54.2382 218.719 53.6246 218.391 52.8482C218.063 52.0718 217.899 51.0575 217.899 49.8053V6.22807L218.153 6.18283C218.693 6.08777 219.428 5.9651 220.357 5.81483C221.441 5.63952 222.537 5.55187 223.646 5.55187ZM242.969 18.5499C244.078 18.5499 245.073 18.625 245.956 18.7753C246.838 18.9256 247.581 19.2261 248.186 19.6769C248.791 20.1277 249.257 20.7413 249.585 21.5177C249.913 22.2941 250.077 23.3083 250.077 24.5606V55.1398L249.823 55.185C249.283 55.2801 248.548 55.4027 247.619 55.553C246.535 55.7283 245.439 55.816 244.33 55.816C243.221 55.816 242.225 55.7408 241.343 55.5906C240.461 55.4403 239.717 55.1398 239.113 54.689C238.508 54.2382 238.041 53.6246 237.714 52.8482C237.386 52.0718 237.222 51.0575 237.222 49.8053V19.2261L237.476 19.1809C238.016 19.0858 238.751 18.9631 239.68 18.8129C240.763 18.6376 241.86 18.5499 242.969 18.5499ZM303.164 5.55187C304.273 5.55187 305.269 5.627 306.151 5.77727C307.033 5.92753 307.777 6.22807 308.382 6.67887C308.987 7.12966 309.453 7.74325 309.78 8.51963C310.108 9.29601 310.272 10.3103 310.272 11.5625V18.9256L310.534 18.8299C311.181 18.6025 312.09 18.3464 313.259 18.0615C314.595 17.736 316.069 17.5732 317.682 17.5732C322.673 17.5732 326.567 18.8129 329.364 21.2923C332.162 23.7717 333.561 27.4657 333.561 32.3744V55.1398L333.327 55.2042C332.824 55.333 332.108 55.4618 331.179 55.5906C330.095 55.7408 328.974 55.816 327.814 55.816C326.705 55.816 325.71 55.7408 324.828 55.5906C323.945 55.4403 323.202 55.1398 322.597 54.689C321.992 54.2382 321.526 53.6246 321.198 52.8482C320.87 52.0718 320.707 51.0575 320.707 49.8053V33.1258L320.698 32.6627C320.624 30.8542 320.11 29.5685 319.157 28.8056C318.123 27.9791 316.85 27.5659 315.338 27.5659C314.33 27.5659 313.372 27.6911 312.465 27.9416C311.557 28.192 310.826 28.4925 310.272 28.8432V55.1398L310.038 55.2042C309.535 55.333 308.819 55.4618 307.89 55.5906C306.806 55.7408 305.685 55.816 304.525 55.816C303.416 55.816 302.421 55.7408 301.539 55.5906C300.656 55.4403 299.913 55.1398 299.308 54.689C298.703 54.2382 298.237 53.6246 297.909 52.8482C297.581 52.0718 297.418 51.0575 297.418 49.8053V6.22807L297.671 6.18283C298.212 6.08777 298.946 5.9651 299.875 5.81483C300.959 5.63952 302.055 5.55187 303.164 5.55187ZM212.641 9.68419L212.814 9.97534C213.098 10.4867 213.355 11.1284 213.586 11.9006C213.863 12.8273 214.002 13.7915 214.002 14.7933C214.002 16.7467 213.586 18.1367 212.754 18.9631C211.923 19.7896 210.801 20.2028 209.389 20.2028H193.511V28.6929H210.07L210.266 28.983C210.585 29.4908 210.86 30.1204 211.091 30.8718C211.368 31.7734 211.507 32.725 211.507 33.7268C211.507 35.6302 211.091 36.9951 210.259 37.8216C209.427 38.648 208.306 39.0613 206.894 39.0613H193.662V54.9144L193.405 54.9788C192.852 55.1076 192.069 55.2364 191.053 55.3652C189.869 55.5154 188.697 55.5906 187.537 55.5906C186.378 55.5906 185.357 55.5029 184.475 55.3276C183.593 55.1523 182.849 54.8392 182.244 54.3885C181.639 53.9376 181.186 53.3115 180.883 52.5101C180.581 51.7087 180.429 50.6568 180.429 49.3545V16.6716L180.443 16.1425C180.539 14.2371 181.165 12.7104 182.32 11.5625C183.58 10.3103 185.294 9.68419 187.461 9.68419H212.641ZM34.9208 7.10405V15.5692H10.6129V26.6491H31.8947V35.0162H10.6129V55.2149H0.547607V7.10405H34.9208ZM48.6532 19.5893V55.2149H39.1471V19.5893H48.6532ZM100.459 7.2021V33.1532L112.136 19.7528H123.747L111.215 33.382L124.241 55.2149H112.925L104.34 39.9842L100.459 44.0043V55.2149H91.2488V7.2021H100.459ZM136.46 7.03868V55.2149H127.085V7.03868H136.46ZM334.261 9.37521C335.832 8.90568 338.514 8.80124 341.654 10.1808C344.823 11.5735 346.8 13.9623 347.584 17.3472L364.597 18.7839C364.808 18.7961 365.017 18.8385 365.226 18.9112C365.538 19.0202 365.706 19.1736 365.847 19.2936C366.192 19.5881 366.305 19.8151 366.469 20.2215C366.762 20.9444 366.673 21.7951 366.292 22.3784C365.677 23.3189 364.715 23.9274 363.406 24.2039L349.671 27.1047L352.096 38.4384C352.374 39.7394 352.988 40.5774 353.936 40.9523C354.885 41.3273 356.115 41.3552 357.625 41.0361C358.381 40.8766 359.148 40.6492 359.927 40.3539C360.706 40.0586 361.376 39.7471 361.938 39.4193C362.509 39.874 363.03 40.4045 363.502 41.0109C363.974 41.6173 364.311 42.3959 364.515 43.3466C365.266 46.8612 359.699 50.1816 356.05 50.8333C352.671 51.4367 347.484 51.938 344.52 44.221C341.556 36.504 336.899 23.5684 333.345 12.7884C333.038 11.8581 332.848 10.9444 333.178 10.1904C333.357 9.78291 333.486 9.607 334.261 9.37521ZM274.844 27.5659C272.373 27.5659 270.521 28.2546 269.286 29.6321C268.051 31.0095 267.433 32.9755 267.433 35.53C267.433 38.4352 268.051 40.5264 269.286 41.8036C270.521 43.0809 272.096 43.7195 274.012 43.7195C276.079 43.7195 277.717 43.2437 278.927 42.292V28.4675L278.695 28.3473C278.361 28.187 277.921 28.0267 277.377 27.8664C276.696 27.6661 275.852 27.5659 274.844 27.5659ZM157.823 26.3222C155.652 26.3222 153.969 26.9977 152.774 28.3487C151.579 29.6996 150.828 31.5299 150.521 33.8396H165.093C164.939 31.3774 164.188 29.5089 162.84 28.2343C161.491 26.9596 159.819 26.3222 157.823 26.3222ZM48.6532 6.74453V15.3404H39.1471V6.74453H48.6532ZM243.649 1.79521C245.767 1.79521 247.468 2.44636 248.753 3.74867C250.039 5.05098 250.681 6.65382 250.681 8.5572C250.681 10.4606 250.039 12.0634 248.753 13.3657C247.468 14.668 245.767 15.3192 243.649 15.3192C241.532 15.3192 239.831 14.668 238.545 13.3657C237.26 12.0634 236.617 10.4606 236.617 8.5572C236.617 6.65382 237.26 5.05098 238.545 3.74867C239.831 2.44636 241.532 1.79521 243.649 1.79521Z" fill="white"/>
</g>
<defs>
<clipPath id="clip0_146_696">
<rect width="366.746" height="69.1132" fill="white" transform="translate(0.547607 0.694611)"/>
</clipPath>
</defs>
</svg>
